<mxfile host="app.diagrams.net" modified="2021-01-22T10:09:32.293Z" agent="5.0 (Macintosh; Intel Mac OS X 10_15_5) AppleWebKit/605.1.15 (KHTML, like Gecko) Version/13.1.1 Safari/605.1.15" etag="x51BoCCfM5ucmHccgsuc" version="14.2.4" type="github">
  <diagram name="Page-1" id="9361dd3d-8414-5efd-6122-117bd74ce7a7">
    <mxGraphModel dx="940" dy="704" grid="1" gridSize="10" guides="1" tooltips="1" connect="1" arrows="1" fold="1" page="0" pageScale="1.5" pageWidth="826" pageHeight="1169" background="#ffffff" math="0" shadow="0">
      <root>
        <mxCell id="0" />
        <mxCell id="1" parent="0" />
        <mxCell id="69" value="" style="fillColor=#DEE8FF;strokeColor=none" parent="1" vertex="1">
          <mxGeometry x="30" y="10" width="940" height="610" as="geometry" />
        </mxCell>
        <mxCell id="2" value="" style="fillColor=#CC4125;strokeColor=#660000" parent="1" vertex="1">
          <mxGeometry x="200" y="150" width="10" height="130" as="geometry" />
        </mxCell>
        <mxCell id="3" value="invoke()" style="edgeStyle=none;verticalLabelPosition=top;verticalAlign=bottom;labelPosition=left;align=right" parent="1" edge="1">
          <mxGeometry x="110" y="49.5" width="100" height="100" as="geometry">
            <mxPoint x="110" y="149.5" as="sourcePoint" />
            <mxPoint x="200" y="149.5" as="targetPoint" />
          </mxGeometry>
        </mxCell>
        <mxCell id="4" value="ElasticsearchSinkBase" style="shadow=1;fillColor=#A2C4C9;strokeColor=none" parent="1" vertex="1">
          <mxGeometry x="140" y="60" width="140" height="50" as="geometry" />
        </mxCell>
        <mxCell id="6" value="" style="fillColor=#CC4125;strokeColor=#660000" parent="1" vertex="1">
          <mxGeometry x="455" y="249.39" width="10" height="80" as="geometry" />
        </mxCell>
        <mxCell id="7" value="ElasticsearchSinkFunction" style="shadow=1;fillColor=#A2C4C9;strokeColor=none" parent="1" vertex="1">
          <mxGeometry x="380" y="60" width="160" height="50" as="geometry" />
        </mxCell>
        <mxCell id="8" value="" style="edgeStyle=none;endArrow=none;dashed=1" parent="1" source="7" target="6" edge="1">
          <mxGeometry x="272.3350694444445" y="165" width="100" height="100" as="geometry">
            <mxPoint x="347.2588734567901" y="110" as="sourcePoint" />
            <mxPoint x="347.5761959876544" y="165" as="targetPoint" />
          </mxGeometry>
        </mxCell>
        <mxCell id="9" value="process()" style="edgeStyle=none;verticalLabelPosition=top;verticalAlign=bottom;exitX=1;exitY=0.75;exitDx=0;exitDy=0;entryX=0.5;entryY=0;entryDx=0;entryDy=0;" parent="1" edge="1" target="6" source="2">
          <mxGeometry width="100" height="100" as="geometry">
            <mxPoint x="210" y="179.5" as="sourcePoint" />
            <mxPoint x="340" y="179.5" as="targetPoint" />
            <mxPoint x="105" y="-8" as="offset" />
          </mxGeometry>
        </mxCell>
        <mxCell id="21" value="" style="fillColor=#CC4125;strokeColor=#660000" parent="1" vertex="1">
          <mxGeometry x="670" y="290.0042901234568" width="10" height="80" as="geometry" />
        </mxCell>
        <mxCell id="22" value="Elasticsearch6&#xa;BulkProcessorIndex" style="shadow=1;fillColor=#A2C4C9;strokeColor=none" parent="1" vertex="1">
          <mxGeometry x="622.5" y="60" width="105" height="50" as="geometry" />
        </mxCell>
        <mxCell id="23" value="" style="edgeStyle=none;endArrow=none;dashed=1;entryX=0.5;entryY=1;entryDx=0;entryDy=0;" parent="1" source="22" target="21" edge="1">
          <mxGeometry x="614.4878472222224" y="174.99999999999997" width="100" height="100" as="geometry">
            <mxPoint x="674.6527777777778" y="110" as="sourcePoint" />
            <mxPoint x="674.6527777777778" y="260" as="targetPoint" />
          </mxGeometry>
        </mxCell>
        <mxCell id="33" value="" style="edgeStyle=elbowEdgeStyle;elbow=horizontal;endArrow=none;dashed=1" parent="1" source="4" target="2" edge="1">
          <mxGeometry x="230.00000000000003" y="310" width="100" height="100" as="geometry">
            <mxPoint x="230.00000000000003" y="410" as="sourcePoint" />
            <mxPoint x="330" y="310" as="targetPoint" />
          </mxGeometry>
        </mxCell>
        <mxCell id="42" value="" style="fillColor=#CC4125;strokeColor=#660000" parent="1" vertex="1">
          <mxGeometry x="200" y="490" width="10" height="50" as="geometry" />
        </mxCell>
        <mxCell id="44" value="" style="edgeStyle=none;dashed=1;endArrow=none" parent="1" source="2" target="42" edge="1">
          <mxGeometry x="50" y="300" width="100" height="100" as="geometry">
            <mxPoint x="50" y="400" as="sourcePoint" />
            <mxPoint x="150" y="300" as="targetPoint" />
          </mxGeometry>
        </mxCell>
        <mxCell id="48" value="" style="fillColor=#CC4125;strokeColor=#660000" parent="1" vertex="1">
          <mxGeometry x="455" y="540" width="10" height="40" as="geometry" />
        </mxCell>
        <mxCell id="52" value="" style="edgeStyle=none;endArrow=none;dashed=1" parent="1" source="6" target="48" edge="1">
          <mxGeometry x="376.5711805555559" y="339.6971450617284" width="100" height="100" as="geometry">
            <mxPoint x="451.7361111111112" y="284.6971450617284" as="sourcePoint" />
            <mxPoint x="451.7361111111112" y="464.0914351851852" as="targetPoint" />
          </mxGeometry>
        </mxCell>
        <mxCell id="71" value="Flink ES bulk index" style="rounded=1;fontStyle=1;fillColor=#FFD966;strokeColor=none" parent="1" vertex="1">
          <mxGeometry x="50" y="20" width="150" height="30" as="geometry" />
        </mxCell>
        <mxCell id="IMTFZmsWNQajksGAzi-T-99" value="checkAsyncErrorsAndRequests()" style="edgeStyle=none;verticalLabelPosition=top;verticalAlign=bottom;labelPosition=left;align=right;exitX=1;exitY=0.25;exitDx=0;exitDy=0;entryX=1;entryY=0.5;entryDx=0;entryDy=0;" edge="1" parent="1" source="2" target="2">
          <mxGeometry width="100" height="100" as="geometry">
            <mxPoint x="120" y="159.5" as="sourcePoint" />
            <mxPoint x="210" y="159.5" as="targetPoint" />
            <Array as="points">
              <mxPoint x="400" y="183" />
              <mxPoint x="400" y="200" />
              <mxPoint x="400" y="215" />
            </Array>
            <mxPoint x="180" y="11" as="offset" />
          </mxGeometry>
        </mxCell>
        <mxCell id="IMTFZmsWNQajksGAzi-T-102" value="add()" style="edgeStyle=none;verticalLabelPosition=top;verticalAlign=bottom;exitX=1;exitY=0.5;exitDx=0;exitDy=0;entryX=0;entryY=0;entryDx=0;entryDy=0;" edge="1" parent="1" source="6" target="21">
          <mxGeometry width="100" height="100" as="geometry">
            <mxPoint x="465" y="280" as="sourcePoint" />
            <mxPoint x="715" y="281.89" as="targetPoint" />
            <mxPoint x="63" y="-10" as="offset" />
          </mxGeometry>
        </mxCell>
        <mxCell id="IMTFZmsWNQajksGAzi-T-103" value="BulkProcessor" style="shadow=1;fillColor=#A2C4C9;strokeColor=none" vertex="1" parent="1">
          <mxGeometry x="790" y="60" width="105" height="50" as="geometry" />
        </mxCell>
        <mxCell id="IMTFZmsWNQajksGAzi-T-106" value="" style="edgeStyle=none;endArrow=none;dashed=1;exitX=0.5;exitY=1;exitDx=0;exitDy=0;" edge="1" parent="1" source="IMTFZmsWNQajksGAzi-T-113">
          <mxGeometry x="799.0711805555559" y="205" width="100" height="100" as="geometry">
            <mxPoint x="842.5" y="110" as="sourcePoint" />
            <mxPoint x="850" y="480" as="targetPoint" />
          </mxGeometry>
        </mxCell>
        <mxCell id="IMTFZmsWNQajksGAzi-T-107" value="synchronized add()" style="edgeStyle=none;verticalLabelPosition=top;verticalAlign=bottom;exitX=1;exitY=0.5;exitDx=0;exitDy=0;entryX=0;entryY=0;entryDx=0;entryDy=0;fontColor=#FF0000;" edge="1" parent="1" source="21" target="IMTFZmsWNQajksGAzi-T-104">
          <mxGeometry width="100" height="100" as="geometry">
            <mxPoint x="690" y="328.39" as="sourcePoint" />
            <mxPoint x="810" y="329" as="targetPoint" />
            <mxPoint x="20" y="-10" as="offset" />
          </mxGeometry>
        </mxCell>
        <mxCell id="IMTFZmsWNQajksGAzi-T-104" value="" style="fillColor=#CC4125;strokeColor=#660000" vertex="1" parent="1">
          <mxGeometry x="840" y="329.39" width="10" height="70.61" as="geometry" />
        </mxCell>
        <mxCell id="IMTFZmsWNQajksGAzi-T-111" value="" style="edgeStyle=none;endArrow=none;dashed=1;exitX=0.5;exitY=1;exitDx=0;exitDy=0;entryX=0.5;entryY=1;entryDx=0;entryDy=0;" edge="1" parent="1" source="IMTFZmsWNQajksGAzi-T-103" target="IMTFZmsWNQajksGAzi-T-104">
          <mxGeometry x="799.0711805555559" y="205" width="100" height="100" as="geometry">
            <mxPoint x="842.5" y="110" as="sourcePoint" />
            <mxPoint x="850" y="480" as="targetPoint" />
          </mxGeometry>
        </mxCell>
        <mxCell id="IMTFZmsWNQajksGAzi-T-112" value="execute()" style="edgeStyle=none;verticalLabelPosition=top;verticalAlign=bottom;labelPosition=left;align=right;exitX=1;exitY=0.25;exitDx=0;exitDy=0;entryX=1;entryY=0.5;entryDx=0;entryDy=0;" edge="1" parent="1">
          <mxGeometry width="100" height="100" as="geometry">
            <mxPoint x="850" y="353.14" as="sourcePoint" />
            <mxPoint x="850" y="385.64" as="targetPoint" />
            <Array as="points">
              <mxPoint x="950" y="354" />
              <mxPoint x="950" y="371" />
              <mxPoint x="950" y="386" />
            </Array>
            <mxPoint x="70" y="11" as="offset" />
          </mxGeometry>
        </mxCell>
        <mxCell id="IMTFZmsWNQajksGAzi-T-113" value="" style="fillColor=#CC4125;strokeColor=#660000" vertex="1" parent="1">
          <mxGeometry x="840" y="440" width="10" height="70.61" as="geometry" />
        </mxCell>
        <mxCell id="IMTFZmsWNQajksGAzi-T-114" value="" style="edgeStyle=none;endArrow=none;dashed=1;exitX=0.5;exitY=1;exitDx=0;exitDy=0;" edge="1" parent="1" source="IMTFZmsWNQajksGAzi-T-104" target="IMTFZmsWNQajksGAzi-T-113">
          <mxGeometry x="799.0711805555559" y="205" width="100" height="100" as="geometry">
            <mxPoint x="845" y="399.9999999999998" as="sourcePoint" />
            <mxPoint x="850" y="480" as="targetPoint" />
          </mxGeometry>
        </mxCell>
        <mxCell id="IMTFZmsWNQajksGAzi-T-115" value="retry()" style="edgeStyle=none;verticalLabelPosition=top;verticalAlign=bottom;labelPosition=left;align=right;exitX=1;exitY=0.25;exitDx=0;exitDy=0;entryX=1;entryY=0.5;entryDx=0;entryDy=0;" edge="1" parent="1">
          <mxGeometry y="106.86" width="100" height="100" as="geometry">
            <mxPoint x="850" y="459.9999999999999" as="sourcePoint" />
            <mxPoint x="850" y="492.4999999999999" as="targetPoint" />
            <Array as="points">
              <mxPoint x="950" y="460.86" />
              <mxPoint x="950" y="477.86" />
              <mxPoint x="950" y="492.86" />
            </Array>
            <mxPoint x="70" y="11" as="offset" />
          </mxGeometry>
        </mxCell>
        <mxCell id="IMTFZmsWNQajksGAzi-T-116" value="&lt;font color=&quot;#000000&quot;&gt;afterBulk()&lt;/font&gt;" style="text;html=1;align=center;verticalAlign=middle;whiteSpace=wrap;rounded=0;labelBackgroundColor=#FFFFFF;" vertex="1" parent="1">
          <mxGeometry x="240" y="470" width="50" height="20" as="geometry" />
        </mxCell>
        <mxCell id="IMTFZmsWNQajksGAzi-T-117" value="onFailure()" style="edgeStyle=none;verticalLabelPosition=top;verticalAlign=bottom;entryX=0;entryY=0;entryDx=0;entryDy=0;exitX=1;exitY=1;exitDx=0;exitDy=0;" edge="1" parent="1" source="42" target="48">
          <mxGeometry width="100" height="100" as="geometry">
            <mxPoint x="220" y="560" as="sourcePoint" />
            <mxPoint x="460" y="521" as="targetPoint" />
            <mxPoint x="78" as="offset" />
          </mxGeometry>
        </mxCell>
        <mxCell id="IMTFZmsWNQajksGAzi-T-118" value="业务线程阻塞等待异步Retry线程" style="endArrow=open;endSize=12;dashed=1;html=1;fontColor=#FF0000;entryX=0;entryY=0;entryDx=0;entryDy=0;" edge="1" parent="1" target="IMTFZmsWNQajksGAzi-T-113">
          <mxGeometry width="160" relative="1" as="geometry">
            <mxPoint x="840" y="400" as="sourcePoint" />
            <mxPoint x="810" y="530" as="targetPoint" />
            <Array as="points">
              <mxPoint x="750" y="400" />
              <mxPoint x="750" y="440" />
            </Array>
          </mxGeometry>
        </mxCell>
        <mxCell id="IMTFZmsWNQajksGAzi-T-122" value="" style="edgeStyle=elbowEdgeStyle;elbow=vertical;dashed=1;verticalLabelPosition=bottom;verticalAlign=top;exitX=0;exitY=0.75;exitDx=0;exitDy=0;" edge="1" parent="1" source="IMTFZmsWNQajksGAzi-T-113">
          <mxGeometry x="530" y="549.0779320987654" width="100" height="100" as="geometry">
            <mxPoint x="1000" y="541.7361111111111" as="sourcePoint" />
            <mxPoint x="210" y="493" as="targetPoint" />
            <Array as="points">
              <mxPoint x="420" y="493" />
              <mxPoint x="610" y="493" />
            </Array>
          </mxGeometry>
        </mxCell>
        <mxCell id="IMTFZmsWNQajksGAzi-T-123" value="add()" style="edgeStyle=none;verticalLabelPosition=top;verticalAlign=bottom;exitX=1;exitY=1;exitDx=0;exitDy=0;" edge="1" parent="1" source="48">
          <mxGeometry width="100" height="100" as="geometry">
            <mxPoint x="475" y="299.39" as="sourcePoint" />
            <mxPoint x="670" y="290" as="targetPoint" />
            <mxPoint x="63" y="-105" as="offset" />
          </mxGeometry>
        </mxCell>
      </root>
    </mxGraphModel>
  </diagram>
</mxfile>
